<svg width="371" height="99" viewBox="0 0 371 99" fill="none" xmlns="http://www.w3.org/2000/svg">
<path d="M149.67 10.47C155.463 10.47 160.413 11.46 164.52 13.44C168.627 15.3467 171.78 18.1333 173.98 21.8C176.253 25.4667 177.39 29.9033 177.39 35.11C177.39 38.2633 176.913 41.38 175.96 44.46C175.007 47.4667 173.467 50.2167 171.34 52.71C169.287 55.13 166.573 57.0733 163.2 58.54C159.827 60.0067 155.72 60.74 150.88 60.74H139.11V90H128.44V10.47H149.67ZM150.77 50.51C153.923 50.51 156.527 49.9967 158.58 48.97C160.633 47.9433 162.247 46.66 163.42 45.12C164.593 43.5067 165.437 41.82 165.95 40.06C166.463 38.3 166.72 36.7233 166.72 35.33C166.72 33.7167 166.463 32.0667 165.95 30.38C165.437 28.62 164.557 27.0433 163.31 25.65C162.137 24.1833 160.56 23.01 158.58 22.13C156.673 21.1767 154.29 20.7 151.43 20.7H139.11V50.51H150.77ZM186.38 4.85999H196.61V90H186.38V4.85999ZM228.28 91.1C224.026 91.1 220.14 90.1833 216.62 88.35C213.173 86.5167 210.423 83.84 208.37 80.32C206.39 76.7267 205.4 72.3633 205.4 67.23C205.4 62.17 206.463 57.8067 208.59 54.14C210.716 50.4 213.54 47.54 217.06 45.56C220.653 43.58 224.576 42.59 228.83 42.59C233.083 42.59 236.676 43.58 239.61 45.56C242.543 47.4667 244.78 49.74 246.32 52.38L245.66 54.14L246.65 44.46H256.11V90H245.88V78.12L246.98 80.76C246.686 81.4933 246.026 82.4467 245 83.62C244.046 84.72 242.726 85.8567 241.04 87.03C239.426 88.2033 237.556 89.1933 235.43 90C233.303 90.7333 230.92 91.1 228.28 91.1ZM231.03 82.63C233.596 82.63 235.906 82.1533 237.96 81.2C240.013 80.2467 241.7 78.9267 243.02 77.24C244.413 75.48 245.366 73.39 245.88 70.97V62.06C245.293 59.86 244.266 57.9533 242.8 56.34C241.333 54.6533 239.573 53.37 237.52 52.49C235.466 51.5367 233.193 51.06 230.7 51.06C227.986 51.06 225.493 51.72 223.22 53.04C220.946 54.36 219.113 56.1933 217.72 58.54C216.4 60.8867 215.74 63.6367 215.74 66.79C215.74 69.7233 216.436 72.4 217.83 74.82C219.223 77.24 221.093 79.1467 223.44 80.54C225.786 81.9333 228.316 82.63 231.03 82.63ZM277.993 44.46L278.873 55.57L278.433 53.81C279.899 50.4367 282.283 47.76 285.583 45.78C288.883 43.7267 292.696 42.7 297.023 42.7C301.349 42.7 304.869 43.9833 307.583 46.55C310.369 49.0433 311.799 52.3067 311.873 56.34V90H301.533V59.97C301.459 57.4767 300.726 55.46 299.333 53.92C298.013 52.3067 295.923 51.5 293.063 51.5C290.423 51.5 288.039 52.2333 285.913 53.7C283.786 55.1667 282.099 57.1833 280.853 59.75C279.679 62.3167 279.093 65.2867 279.093 68.66V90H268.863V44.46H277.993ZM328.606 67.085C328.606 68.4456 328.699 69.6981 328.885 70.8423C329.101 71.9556 329.395 73.0225 329.766 74.043C330.91 77.1354 332.735 79.4702 335.24 81.0474C337.775 82.5936 340.636 83.3667 343.821 83.3667C346.326 83.3667 348.754 83.0265 351.104 82.3462C353.485 81.6349 355.974 80.5371 358.572 79.0527L362.051 84.9438C358.897 87.1086 355.727 88.7166 352.542 89.7681C349.357 90.8195 346.048 91.3452 342.615 91.3452C339.368 91.3452 336.353 90.804 333.57 89.7217C330.817 88.6393 328.436 87.0312 326.426 84.8975C324.447 82.7637 322.885 80.1042 321.741 76.9189C320.628 73.7337 320.071 70.0228 320.071 65.7861C320.071 62.3535 320.55 59.1219 321.509 56.0913C322.468 53.0298 323.89 50.3703 325.777 48.1128C327.694 45.8244 330.06 44.0153 332.874 42.6855C335.688 41.3558 338.966 40.6909 342.708 40.6909C346.326 40.6909 349.341 41.2476 351.753 42.3608C354.196 43.4432 356.175 44.8966 357.691 46.7212C359.237 48.5148 360.397 50.5713 361.17 52.8906C361.974 55.21 362.53 57.5757 362.84 59.9878C362.994 61.1629 363.087 62.3535 363.118 63.5596C363.18 64.7656 363.211 65.9408 363.211 67.085H328.606ZM342.105 47.9272C340.095 47.9272 338.332 48.221 336.817 48.8086C335.332 49.3652 334.064 50.1847 333.013 51.2671C331.962 52.3185 331.111 53.6174 330.462 55.1636C329.843 56.7098 329.379 58.4416 329.07 60.3589H353.98C353.856 58.5653 353.562 56.9108 353.098 55.3955C352.665 53.8802 351.985 52.5659 351.057 51.4526C350.13 50.3394 348.939 49.4735 347.486 48.855C346.032 48.2365 344.239 47.9272 342.105 47.9272Z" fill="black"/>
<path d="M81 8H27V36H54V63H81V8Z" fill="#3F76FF"/>
<rect y="36" width="27" height="27" fill="#3F76FF"/>
<rect x="27" y="63" width="27" height="27" fill="#3F76FF"/>
</svg>
